Inverse Dynamics Generalized Forces
version=1
nRows=9
nColumns=34
inDegrees=no
endheader 
time	pelvis_tilt_moment	pelvis_list_moment	pelvis_rotation_moment	pelvis_tx_force	pelvis_ty_force	pelvis_tz_force	hip_flexion_l_moment	hip_adduction_l_moment	hip_rotation_l_moment	hip_flexion_r_moment	hip_adduction_r_moment	hip_rotation_r_moment	knee_angle_l_moment	knee_angle_r_moment	ankle_angle_l_moment	ankle_angle_r_moment	subtalar_angle_l_moment	subtalar_angle_r_moment	mtp_angle_l_moment	mtp_angle_r_moment	lumbar_extension_moment	lumbar_bending_moment	lumbar_rotation_moment	arm_flex_l_moment	arm_add_l_moment	arm_rot_l_moment	arm_flex_r_moment	arm_add_r_moment	arm_rot_r_moment	elbow_flex_l_moment	elbow_flex_r_moment	pro_sup_l_moment	pro_sup_r_moment	
          3.80000000	          0.00000000	          0.00000000	          0.00000000	         -0.00000000	          0.00000000	          0.00000000	         41.60089789	          6.05644924	          2.97412232	         -1.77727471	         17.60556400	         -3.30995671	          1.06560491	         16.08520151	         -0.23715408	          2.41686626	          0.06933143	         -1.35292827	          0.05032729	         -0.21674573	       -108.58032954	        -38.00187560	        -26.63648717	         12.98900450	         41.45530382	        106.05006740	        -95.17813240	       -126.06938891	         10.87008730	         22.57491501	       -109.82588625	          6.18750072	          1.34780821	
          3.81000000	          0.00000000	          0.00000000	          0.00000000	          0.00000000	          0.00000000	          0.00000000	         47.27627899	          8.85726978	          2.95916145	         -6.23355639	         14.92952650	         -3.39796831	          0.37503508	         18.37034679	          0.23043626	          2.96576969	          0.03132122	         -1.49041744	          0.03046796	         -0.26339735	       -107.70683747	        -44.35590534	        -37.67886456	         47.87300155	         68.54415301	         40.96025825	       -107.26534137	       -132.43379066	        -29.83719137	        -20.44289988	        -43.11031347	          1.14507388	         -4.11916187	
          3.82000000	         -0.00000000	          0.00000000	          0.00000000	          0.00000000	         -0.00000000	          0.00000000	         28.96055678	         17.28110075	          0.82808834	         -6.25906768	          4.29472602	         -3.88463790	          6.34152310	         19.91906162	          0.49467574	          3.11079380	          0.54212838	         -1.46875653	         -0.00196435	         -0.24077661	        -58.63971333	        -39.10006423	         -9.09271966	         73.49373641	         88.79884339	         36.79912514	        -39.54567049	       -136.81402302	        -61.47456723	        -52.57012388	          7.07135992	          0.38612876	         -8.64642589	
          3.83000000	         -0.00000000	         -0.00000000	         -0.00000000	          0.00000000	          0.00000000	          0.00000000	        -45.17844721	         48.96701432	         -7.26295651	         -4.18998835	         -0.09167963	         -4.04717750	         42.39938177	         29.17473685	         -0.79321973	          2.48071253	          1.91449309	         -0.80704323	          0.01302532	         -0.17047443	         -4.14534464	        -27.78495152	         56.36896339	         92.30545937	        104.04514254	         64.68505230	         13.93198346	       -139.17876638	        -86.12994785	        -19.60803959	         44.14053469	          0.78244327	        -15.40236475	
          3.84000000	          0.00000000	         -0.00000000	          0.00000000	         -0.00000000	         -0.00000000	         -0.00000000	        -75.72294085	         44.69282411	         -8.63418547	        -26.57412987	          5.73424460	         -3.05687730	         40.24524201	         40.29478758	         -0.75458842	          1.31916548	          1.86127690	          0.21706618	         -0.04337206	         -0.14458342	         71.44075084	        -33.91772023	         81.28971163	        106.32772000	         40.87878217	         85.27853329	         46.02922404	       -138.61653073	        -41.81560986	         10.14133053	         66.99123952	          2.51081669	         -2.73472192	
          3.85000000	          0.00000000	          0.00000000	         -0.00000000	         -0.00000000	          0.00000000	          0.00000000	         48.34432169	         47.58822311	         -0.90045548	         11.24050332	         -3.48986071	         -3.11022689	         31.88840492	         21.91501818	          5.80097737	          4.93752302	          0.32010918	          2.27175988	         -0.23128445	         -0.35188512	        128.24254609	          2.05594655	         65.84254189	        116.96078178	         -6.35330730	         74.82151974	         61.89650559	       -138.61629991	         23.62914457	        -29.31967937	         80.47282336	          4.05534947	         18.09723646	
          3.86000000	         -0.00000000	         -0.00000000	         -0.00000000	         -0.00000000	         -0.00000000	         -0.00000000	        -42.88426239	         43.84061563	        -13.74402820	        -28.38647410	        -10.59662992	         -1.26951320	         32.47050592	         32.87560230	          0.16161055	         -0.81162542	          1.34394240	          0.66640507	         -0.05760476	          0.05092357	         74.93055829	        -26.21899299	        102.05640830	        125.93594895	         23.82695196	         43.44367487	         86.77380903	       -145.97443451	         38.14400615	         15.87402087	         28.13741214	          1.99528302	          6.37938059	
          3.87000000	          0.00000000	         -0.00000000	          0.00000000	         -0.00000000	          0.00000000	         -0.00000000	        -20.52289168	         26.65908311	        -12.64469515	        -12.99872872	        -25.24968909	         -1.35020273	         25.81298000	         15.25546905	         -0.08474326	          0.38422955	          1.20028584	         -0.39917972	          0.00347130	          0.01240867	         30.87027554	        -10.88745968	         78.85826080	        131.30860695	        -19.17341012	         39.10367055	        101.97774149	       -146.25535768	         63.77452266	         20.72594433	         14.80273224	          4.17989928	          9.60936190	
          3.88000000	          0.00000000	          0.00000000	          0.00000000	          0.00000000	         -0.00000000	          0.00000000	        -17.51296191	         20.37813572	        -11.43343805	        -50.57213818	        -36.98842702	         -0.60325137	         21.56133904	         22.77723833	         -0.51432502	         -0.58243276	          1.17409289	         -0.67614674	          0.05678974	          0.08399340	         97.75096748	        -44.73794065	         97.11229171	        134.96328290	        -51.22062583	        -11.30223861	        113.24707923	       -145.99982668	          7.11101254	        -20.61643260	         16.64272910	          2.08487526	          5.70550949	
